<svg width="24" height="24" viewBox="0 0 24 24" fill="none" xmlns="http://www.w3.org/2000/svg">
<g clip-path="url(#clip0_262_614)">
<path d="M8.71312 18.0421C7.44512 18.4221 6.65312 18.3771 6.13012 18.2121C5.89912 18.1391 5.69912 18.0361 5.51612 17.9101C5.10512 17.6261 4.78912 17.2351 4.39712 16.7381C4.04112 16.2871 3.54712 15.6311 2.84612 15.2621C2.66112 15.1641 2.46012 15.0851 2.24212 15.0301C1.70612 14.8961 1.16312 15.2221 1.02912 15.7581C0.895122 16.2941 1.22112 16.8371 1.75712 16.9711C1.83112 16.9941 1.91212 17.0311 1.91212 17.0311C2.16412 17.1641 2.39912 17.4351 2.82612 17.9771C3.19212 18.4411 3.68212 19.0751 4.37912 19.5561C4.71112 19.7851 5.09012 19.9821 5.52812 20.1201C6.54312 20.4411 7.76412 20.4161 9.28812 19.9581C9.81712 19.7991 10.1171 19.2421 9.95812 18.7131C9.79912 18.1841 9.24212 17.8841 8.71312 18.0431V18.0421ZM17.0001 22.0001V18.2081C17.0521 17.5241 16.9441 16.8651 16.7081 16.2661C17.4851 16.0951 18.2711 15.8391 19.0051 15.4431C21.0881 14.3191 22.5011 12.2011 22.5011 8.52008C22.5011 7.01708 21.9851 5.63308 21.1221 4.53908C21.4771 3.19408 21.3481 1.81308 20.8291 0.606077C20.7071 0.323077 20.4701 0.124078 20.1951 0.0420775C19.8381 -0.0639225 18.4631 -0.266922 15.8221 1.40408C13.5491 0.863078 11.2651 0.895077 9.17612 1.40208C6.53712 -0.266923 5.16312 -0.0639225 4.80612 0.0420775C4.51012 0.130078 4.28512 0.342077 4.17112 0.607077C3.61712 1.89908 3.54712 3.27908 3.87912 4.53908C2.94912 5.71708 2.49212 7.14008 2.50012 8.55608C2.50012 12.1781 3.88912 14.2791 5.94112 15.4151C6.69312 15.8311 7.50112 16.1001 8.29812 16.2821C8.11312 16.7501 8.01212 17.2431 7.99412 17.7381C7.98912 17.8791 7.99112 18.0211 7.99912 18.1621L8.00012 22.0001C8.00012 22.5521 8.44812 23.0001 9.00012 23.0001C9.55212 23.0001 10.0001 22.5521 10.0001 22.0001V18.1301C10.0001 18.1091 9.99912 18.0851 9.99812 18.0611C9.99212 17.9771 9.99112 17.8931 9.99412 17.8091C10.0141 17.2411 10.2351 16.6831 10.6591 16.2451C10.8041 16.0961 10.9051 15.8981 10.9331 15.6731C11.0011 15.1251 10.6121 14.6251 10.0641 14.5571C9.72412 14.5151 9.38712 14.4631 9.05812 14.3981C8.26812 14.2421 7.54012 14.0131 6.91112 13.6651C5.60612 12.9421 4.52012 11.5941 4.50112 8.62308C4.51412 7.38208 4.92012 6.30408 5.72512 5.45808C5.98212 5.18508 6.07512 4.78708 5.93712 4.41808C5.65712 3.67008 5.59612 2.83808 5.79712 2.02608C6.28812 2.13308 7.15112 2.44208 8.44412 3.30808C8.67912 3.46508 8.97712 3.52208 9.26912 3.44108C11.2661 2.88408 13.5111 2.83908 15.7391 3.44308C16.0101 3.51608 16.3081 3.47608 16.5571 3.30808C17.8501 2.44208 18.7131 2.13308 19.2041 2.02608C19.3931 2.79208 19.3611 3.62108 19.0631 4.41808C18.9341 4.77008 19.0051 5.17308 19.2761 5.45808C20.0341 6.25308 20.5001 7.33008 20.5001 8.51808C20.5001 11.5931 19.3861 12.9631 18.0551 13.6811C17.4321 14.0171 16.7121 14.2361 15.9321 14.3811C15.6101 14.4411 15.2811 14.4871 14.9491 14.5241C14.7391 14.5471 14.5311 14.6381 14.3651 14.7991C13.9681 15.1831 13.9571 15.8161 14.3411 16.2131C14.4081 16.2831 14.4711 16.3561 14.5291 16.4331C14.8691 16.8821 15.0501 17.4481 15.0031 18.0501C15.0031 18.0741 15.0021 18.1011 15.0001 18.1281V22.0001C15.0001 22.5521 15.4481 23.0001 16.0001 23.0001C16.5521 23.0001 17.0001 22.5521 17.0001 22.0001V22.0001Z" fill="#979FA9"/>
</g>
<defs>
<clipPath id="clip0_262_614">
<rect width="24" height="24" fill="white"/>
</clipPath>
</defs>
</svg>
