<svg width="232" height="40" viewBox="0 0 232 40" fill="none" xmlns="http://www.w3.org/2000/svg">
<path d="M17 34C25.2843 34 32 27.2843 32 19C32 10.7157 25.2843 4 17 4C8.71573 4 2 10.7157 2 19C2 26.2721 7.17492 32.3355 14.0431 33.7086C14.1678 33.2985 14.5491 33 15 33C15.5413 33 15.9821 33.4301 15.9995 33.9672C16.3302 33.9889 16.6638 34 17 34Z" fill="#5486BA"/>
<circle cx="32.5" cy="3.5" r="3.5" fill="#687AC5"/>
<circle cx="7.5" cy="32.5" r="7.5" fill="#BEDFFB"/>
<circle cx="25" cy="29" r="11" fill="#394596"/>
<path d="M58.21 23.23C58.21 21.85 57.9 20.75 57.28 19.93C56.66 19.09 55.74 18.67 54.52 18.67C54.12 18.67 53.75 18.69 53.41 18.73C53.07 18.75 52.79 18.78 52.57 18.82V26.89C52.85 27.07 53.21 27.22 53.65 27.34C54.11 27.46 54.57 27.52 55.03 27.52C57.15 27.52 58.21 26.09 58.21 23.23ZM62.77 23.11C62.77 24.33 62.62 25.44 62.32 26.44C62.02 27.44 61.58 28.3 61 29.02C60.42 29.74 59.7 30.3 58.84 30.7C57.98 31.1 56.99 31.3 55.87 31.3C55.25 31.3 54.67 31.24 54.13 31.12C53.59 31 53.07 30.83 52.57 30.61V36.55H48.1V15.76C48.5 15.64 48.96 15.53 49.48 15.43C50 15.31 50.54 15.21 51.1 15.13C51.68 15.05 52.26 14.99 52.84 14.95C53.44 14.89 54.01 14.86 54.55 14.86C55.85 14.86 57.01 15.06 58.03 15.46C59.05 15.84 59.91 16.39 60.61 17.11C61.31 17.81 61.84 18.67 62.2 19.69C62.58 20.71 62.77 21.85 62.77 23.11ZM75.7155 19.18C75.3155 19.08 74.8455 18.98 74.3055 18.88C73.7655 18.76 73.1855 18.7 72.5655 18.7C72.2855 18.7 71.9455 18.73 71.5455 18.79C71.1655 18.83 70.8755 18.88 70.6755 18.94V31H66.2055V16.06C67.0055 15.78 67.9455 15.52 69.0255 15.28C70.1255 15.02 71.3455 14.89 72.6855 14.89C72.9255 14.89 73.2155 14.91 73.5555 14.95C73.8955 14.97 74.2355 15.01 74.5755 15.07C74.9155 15.11 75.2555 15.17 75.5955 15.25C75.9355 15.31 76.2255 15.39 76.4655 15.49L75.7155 19.18ZM93.3288 23.08C93.3288 24.32 93.1488 25.46 92.7888 26.5C92.4288 27.52 91.9088 28.4 91.2288 29.14C90.5488 29.86 89.7288 30.42 88.7688 30.82C87.8288 31.22 86.7688 31.42 85.5888 31.42C84.4288 31.42 83.3688 31.22 82.4088 30.82C81.4688 30.42 80.6588 29.86 79.9788 29.14C79.2988 28.4 78.7688 27.52 78.3888 26.5C78.0088 25.46 77.8188 24.32 77.8188 23.08C77.8188 21.84 78.0088 20.71 78.3888 19.69C78.7888 18.67 79.3288 17.8 80.0088 17.08C80.7088 16.36 81.5288 15.8 82.4688 15.4C83.4288 15 84.4688 14.8 85.5888 14.8C86.7288 14.8 87.7688 15 88.7088 15.4C89.6688 15.8 90.4888 16.36 91.1688 17.08C91.8488 17.8 92.3788 18.67 92.7588 19.69C93.1388 20.71 93.3288 21.84 93.3288 23.08ZM88.7688 23.08C88.7688 21.7 88.4888 20.62 87.9288 19.84C87.3888 19.04 86.6088 18.64 85.5888 18.64C84.5688 18.64 83.7788 19.04 83.2188 19.84C82.6588 20.62 82.3788 21.7 82.3788 23.08C82.3788 24.46 82.6588 25.56 83.2188 26.38C83.7788 27.18 84.5688 27.58 85.5888 27.58C86.6088 27.58 87.3888 27.18 87.9288 26.38C88.4888 25.56 88.7688 24.46 88.7688 23.08ZM96.6414 11.29L101.111 10.57V15.22H106.481V18.94H101.111V24.49C101.111 25.43 101.271 26.18 101.591 26.74C101.931 27.3 102.601 27.58 103.601 27.58C104.081 27.58 104.571 27.54 105.071 27.46C105.591 27.36 106.061 27.23 106.481 27.07L107.111 30.55C106.571 30.77 105.971 30.96 105.311 31.12C104.651 31.28 103.841 31.36 102.881 31.36C101.661 31.36 100.651 31.2 99.8514 30.88C99.0514 30.54 98.4114 30.08 97.9314 29.5C97.4514 28.9 97.1114 28.18 96.9114 27.34C96.7314 26.5 96.6414 25.57 96.6414 24.55V11.29ZM108.786 23.23C108.786 21.83 108.996 20.61 109.416 19.57C109.856 18.51 110.426 17.63 111.126 16.93C111.826 16.23 112.626 15.7 113.526 15.34C114.446 14.98 115.386 14.8 116.346 14.8C118.586 14.8 120.356 15.49 121.656 16.87C122.956 18.23 123.606 20.24 123.606 22.9C123.606 23.16 123.596 23.45 123.576 23.77C123.556 24.07 123.536 24.34 123.516 24.58H113.376C113.476 25.5 113.906 26.23 114.666 26.77C115.426 27.31 116.446 27.58 117.726 27.58C118.546 27.58 119.346 27.51 120.126 27.37C120.926 27.21 121.576 27.02 122.076 26.8L122.676 30.43C122.436 30.55 122.116 30.67 121.716 30.79C121.316 30.91 120.866 31.01 120.366 31.09C119.886 31.19 119.366 31.27 118.806 31.33C118.246 31.39 117.686 31.42 117.126 31.42C115.706 31.42 114.466 31.21 113.406 30.79C112.366 30.37 111.496 29.8 110.796 29.08C110.116 28.34 109.606 27.47 109.266 26.47C108.946 25.47 108.786 24.39 108.786 23.23ZM119.286 21.52C119.266 21.14 119.196 20.77 119.076 20.41C118.976 20.05 118.806 19.73 118.566 19.45C118.346 19.17 118.056 18.94 117.696 18.76C117.356 18.58 116.926 18.49 116.406 18.49C115.906 18.49 115.476 18.58 115.116 18.76C114.756 18.92 114.456 19.14 114.216 19.42C113.976 19.7 113.786 20.03 113.646 20.41C113.526 20.77 113.436 21.14 113.376 21.52H119.286ZM141.815 23.08C141.815 24.32 141.635 25.46 141.275 26.5C140.915 27.52 140.395 28.4 139.715 29.14C139.035 29.86 138.215 30.42 137.255 30.82C136.315 31.22 135.255 31.42 134.075 31.42C132.915 31.42 131.855 31.22 130.895 30.82C129.955 30.42 129.145 29.86 128.465 29.14C127.785 28.4 127.255 27.52 126.875 26.5C126.495 25.46 126.305 24.32 126.305 23.08C126.305 21.84 126.495 20.71 126.875 19.69C127.275 18.67 127.815 17.8 128.495 17.08C129.195 16.36 130.015 15.8 130.955 15.4C131.915 15 132.955 14.8 134.075 14.8C135.215 14.8 136.255 15 137.195 15.4C138.155 15.8 138.975 16.36 139.655 17.08C140.335 17.8 140.865 18.67 141.245 19.69C141.625 20.71 141.815 21.84 141.815 23.08ZM137.255 23.08C137.255 21.7 136.975 20.62 136.415 19.84C135.875 19.04 135.095 18.64 134.075 18.64C133.055 18.64 132.265 19.04 131.705 19.84C131.145 20.62 130.865 21.7 130.865 23.08C130.865 24.46 131.145 25.56 131.705 26.38C132.265 27.18 133.055 27.58 134.075 27.58C135.095 27.58 135.875 27.18 136.415 26.38C136.975 25.56 137.255 24.46 137.255 23.08ZM153.948 22.63C153.948 21.19 153.758 20.17 153.378 19.57C153.018 18.97 152.388 18.67 151.488 18.67C151.208 18.67 150.918 18.69 150.618 18.73C150.318 18.75 150.028 18.78 149.748 18.82V31H145.278V15.76C145.658 15.66 146.098 15.56 146.598 15.46C147.118 15.34 147.658 15.24 148.218 15.16C148.798 15.06 149.388 14.99 149.988 14.95C150.588 14.89 151.178 14.86 151.758 14.86C152.898 14.86 153.818 15.01 154.518 15.31C155.238 15.59 155.828 15.93 156.288 16.33C156.928 15.87 157.658 15.51 158.478 15.25C159.318 14.99 160.088 14.86 160.788 14.86C162.048 14.86 163.078 15.04 163.878 15.4C164.698 15.74 165.348 16.23 165.828 16.87C166.308 17.51 166.638 18.27 166.818 19.15C166.998 20.03 167.088 21.01 167.088 22.09V31H162.618V22.63C162.618 21.19 162.428 20.17 162.048 19.57C161.688 18.97 161.058 18.67 160.158 18.67C159.918 18.67 159.578 18.73 159.138 18.85C158.718 18.97 158.368 19.12 158.088 19.3C158.228 19.76 158.318 20.25 158.358 20.77C158.398 21.27 158.418 21.81 158.418 22.39V31H153.948V22.63ZM177.177 27.88C177.617 27.88 178.037 27.87 178.437 27.85C178.837 27.83 179.157 27.8 179.397 27.76V24.37C179.217 24.33 178.947 24.29 178.587 24.25C178.227 24.21 177.897 24.19 177.597 24.19C177.177 24.19 176.777 24.22 176.397 24.28C176.037 24.32 175.717 24.41 175.437 24.55C175.157 24.69 174.937 24.88 174.777 25.12C174.617 25.36 174.537 25.66 174.537 26.02C174.537 26.72 174.767 27.21 175.227 27.49C175.707 27.75 176.357 27.88 177.177 27.88ZM176.817 14.8C178.137 14.8 179.237 14.95 180.117 15.25C180.997 15.55 181.697 15.98 182.217 16.54C182.757 17.1 183.137 17.78 183.357 18.58C183.577 19.38 183.687 20.27 183.687 21.25V30.55C183.047 30.69 182.157 30.85 181.017 31.03C179.877 31.23 178.497 31.33 176.877 31.33C175.857 31.33 174.927 31.24 174.087 31.06C173.267 30.88 172.557 30.59 171.957 30.19C171.357 29.77 170.897 29.23 170.577 28.57C170.257 27.91 170.097 27.1 170.097 26.14C170.097 25.22 170.277 24.44 170.637 23.8C171.017 23.16 171.517 22.65 172.137 22.27C172.757 21.89 173.467 21.62 174.267 21.46C175.067 21.28 175.897 21.19 176.757 21.19C177.337 21.19 177.847 21.22 178.287 21.28C178.747 21.32 179.117 21.38 179.397 21.46V21.04C179.397 20.28 179.167 19.67 178.707 19.21C178.247 18.75 177.447 18.52 176.307 18.52C175.547 18.52 174.797 18.58 174.057 18.7C173.317 18.8 172.677 18.95 172.137 19.15L171.567 15.55C171.827 15.47 172.147 15.39 172.527 15.31C172.927 15.21 173.357 15.13 173.817 15.07C174.277 14.99 174.757 14.93 175.257 14.89C175.777 14.83 176.297 14.8 176.817 14.8ZM187.579 11.29L192.049 10.57V15.22H197.419V18.94H192.049V24.49C192.049 25.43 192.209 26.18 192.529 26.74C192.869 27.3 193.539 27.58 194.539 27.58C195.019 27.58 195.509 27.54 196.009 27.46C196.529 27.36 196.999 27.23 197.419 27.07L198.049 30.55C197.509 30.77 196.909 30.96 196.249 31.12C195.589 31.28 194.779 31.36 193.819 31.36C192.599 31.36 191.589 31.2 190.789 30.88C189.989 30.54 189.349 30.08 188.869 29.5C188.389 28.9 188.049 28.18 187.849 27.34C187.669 26.5 187.579 25.57 187.579 24.55V11.29ZM199.723 23.11C199.723 21.97 199.903 20.9 200.263 19.9C200.643 18.88 201.183 18 201.883 17.26C202.583 16.5 203.433 15.9 204.433 15.46C205.433 15.02 206.573 14.8 207.853 14.8C208.693 14.8 209.463 14.88 210.163 15.04C210.863 15.18 211.543 15.39 212.203 15.67L211.273 19.24C210.853 19.08 210.393 18.94 209.893 18.82C209.393 18.7 208.833 18.64 208.213 18.64C206.893 18.64 205.903 19.05 205.243 19.87C204.603 20.69 204.283 21.77 204.283 23.11C204.283 24.53 204.583 25.63 205.183 26.41C205.803 27.19 206.873 27.58 208.393 27.58C208.933 27.58 209.513 27.53 210.133 27.43C210.753 27.33 211.323 27.17 211.843 26.95L212.473 30.61C211.953 30.83 211.303 31.02 210.523 31.18C209.743 31.34 208.883 31.42 207.943 31.42C206.503 31.42 205.263 31.21 204.223 30.79C203.183 30.35 202.323 29.76 201.643 29.02C200.983 28.28 200.493 27.41 200.173 26.41C199.873 25.39 199.723 24.29 199.723 23.11ZM215.473 31V8.44L219.943 7.72V15.28C220.243 15.18 220.623 15.09 221.083 15.01C221.563 14.91 222.023 14.86 222.463 14.86C223.743 14.86 224.803 15.04 225.643 15.4C226.503 15.74 227.183 16.23 227.683 16.87C228.203 17.51 228.563 18.27 228.763 19.15C228.983 20.03 229.093 21.01 229.093 22.09V31H224.623V22.63C224.623 21.19 224.433 20.17 224.053 19.57C223.693 18.97 223.013 18.67 222.013 18.67C221.613 18.67 221.233 18.71 220.873 18.79C220.533 18.85 220.223 18.92 219.943 19V31H215.473Z" fill="#5162B0"/>
</svg>
